<mxfile host="app.diagrams.net" modified="2024-01-30T20:43:58.538Z" agent="Mozilla/5.0 (Windows NT 10.0; Win64; x64) AppleWebKit/537.36 (KHTML, like Gecko) Chrome/121.0.0.0 Safari/537.36" etag="QaRVf0CpN6BDS8m4gp7k" version="23.0.2" type="device">
  <diagram name="PÃ¡gina-1" id="fDVDPx3qGRDeALDN2FfP">
    <mxGraphModel dx="1400" dy="696" grid="1" gridSize="10" guides="1" tooltips="1" connect="1" arrows="1" fold="1" page="1" pageScale="1" pageWidth="827" pageHeight="1169" math="0" shadow="0">
      <root>
        <mxCell id="0" />
        <mxCell id="1" parent="0" />
        <mxCell id="xIOSsBca0JQ4WLuGrc02-2" value="Iphone" style="swimlane;whiteSpace=wrap;html=1;" vertex="1" collapsed="1" parent="1">
          <mxGeometry x="10" y="600" width="80" height="30" as="geometry">
            <mxRectangle x="30" y="230" width="200" height="200" as="alternateBounds" />
          </mxGeometry>
        </mxCell>
        <mxCell id="xIOSsBca0JQ4WLuGrc02-15" value="Ipod" style="swimlane;whiteSpace=wrap;html=1;" vertex="1" collapsed="1" parent="1">
          <mxGeometry x="380" y="270" width="120" height="80" as="geometry">
            <mxRectangle x="220" y="20" width="200" height="200" as="alternateBounds" />
          </mxGeometry>
        </mxCell>
        <mxCell id="xIOSsBca0JQ4WLuGrc02-16" value="Text" style="text;html=1;strokeColor=none;fillColor=none;align=center;verticalAlign=middle;whiteSpace=wrap;rounded=0;" vertex="1" parent="xIOSsBca0JQ4WLuGrc02-15">
          <mxGeometry x="30" y="30" width="60" height="30" as="geometry" />
        </mxCell>
        <mxCell id="xIOSsBca0JQ4WLuGrc02-21" style="edgeStyle=orthogonalEdgeStyle;rounded=0;orthogonalLoop=1;jettySize=auto;html=1;entryX=0.5;entryY=1;entryDx=0;entryDy=0;" edge="1" parent="1" source="xIOSsBca0JQ4WLuGrc02-17" target="xIOSsBca0JQ4WLuGrc02-15">
          <mxGeometry relative="1" as="geometry">
            <Array as="points">
              <mxPoint x="440" y="380" />
              <mxPoint x="440" y="380" />
            </Array>
          </mxGeometry>
        </mxCell>
        <mxCell id="xIOSsBca0JQ4WLuGrc02-17" value="&amp;lt;&amp;lt;interface&amp;gt;&amp;gt;&lt;br&gt;MusicPlayer" style="swimlane;fontStyle=0;childLayout=stackLayout;horizontal=1;startSize=30;horizontalStack=0;resizeParent=1;resizeParentMax=0;resizeLast=0;collapsible=1;marginBottom=0;whiteSpace=wrap;html=1;" vertex="1" parent="1">
          <mxGeometry x="370" y="400" width="140" height="120" as="geometry" />
        </mxCell>
        <mxCell id="xIOSsBca0JQ4WLuGrc02-18" value="+ tocar" style="text;strokeColor=none;fillColor=none;align=left;verticalAlign=middle;spacingLeft=4;spacingRight=4;overflow=hidden;points=[[0,0.5],[1,0.5]];portConstraint=eastwest;rotatable=0;whiteSpace=wrap;html=1;" vertex="1" parent="xIOSsBca0JQ4WLuGrc02-17">
          <mxGeometry y="30" width="140" height="30" as="geometry" />
        </mxCell>
        <mxCell id="xIOSsBca0JQ4WLuGrc02-19" value="+ pausar" style="text;strokeColor=none;fillColor=none;align=left;verticalAlign=middle;spacingLeft=4;spacingRight=4;overflow=hidden;points=[[0,0.5],[1,0.5]];portConstraint=eastwest;rotatable=0;whiteSpace=wrap;html=1;" vertex="1" parent="xIOSsBca0JQ4WLuGrc02-17">
          <mxGeometry y="60" width="140" height="30" as="geometry" />
        </mxCell>
        <mxCell id="xIOSsBca0JQ4WLuGrc02-20" value="+ selecionarMusica" style="text;strokeColor=none;fillColor=none;align=left;verticalAlign=middle;spacingLeft=4;spacingRight=4;overflow=hidden;points=[[0,0.5],[1,0.5]];portConstraint=eastwest;rotatable=0;whiteSpace=wrap;html=1;" vertex="1" parent="xIOSsBca0JQ4WLuGrc02-17">
          <mxGeometry y="90" width="140" height="30" as="geometry" />
        </mxCell>
        <mxCell id="xIOSsBca0JQ4WLuGrc02-27" value="" style="endArrow=none;dashed=1;html=1;rounded=0;entryX=0;entryY=0.5;entryDx=0;entryDy=0;" edge="1" parent="1" source="xIOSsBca0JQ4WLuGrc02-38" target="xIOSsBca0JQ4WLuGrc02-28">
          <mxGeometry width="50" height="50" relative="1" as="geometry">
            <mxPoint x="90" y="614.71" as="sourcePoint" />
            <mxPoint x="210" y="615" as="targetPoint" />
          </mxGeometry>
        </mxCell>
        <mxCell id="xIOSsBca0JQ4WLuGrc02-28" value="" style="triangle;whiteSpace=wrap;html=1;" vertex="1" parent="1">
          <mxGeometry x="215" y="610" width="10" height="10" as="geometry" />
        </mxCell>
        <mxCell id="xIOSsBca0JQ4WLuGrc02-39" value="" style="endArrow=none;dashed=1;html=1;rounded=0;entryX=0;entryY=0.5;entryDx=0;entryDy=0;" edge="1" parent="1" target="xIOSsBca0JQ4WLuGrc02-38">
          <mxGeometry width="50" height="50" relative="1" as="geometry">
            <mxPoint x="90" y="614.71" as="sourcePoint" />
            <mxPoint x="215" y="615" as="targetPoint" />
          </mxGeometry>
        </mxCell>
        <mxCell id="xIOSsBca0JQ4WLuGrc02-38" value="Implements" style="text;html=1;strokeColor=none;fillColor=none;align=center;verticalAlign=middle;whiteSpace=wrap;rounded=0;" vertex="1" parent="1">
          <mxGeometry x="130" y="600" width="60" height="30" as="geometry" />
        </mxCell>
        <mxCell id="xIOSsBca0JQ4WLuGrc02-43" style="edgeStyle=orthogonalEdgeStyle;rounded=0;orthogonalLoop=1;jettySize=auto;html=1;exitX=0.5;exitY=0;exitDx=0;exitDy=0;entryX=0.357;entryY=1;entryDx=0;entryDy=0;entryPerimeter=0;" edge="1" parent="1" target="xIOSsBca0JQ4WLuGrc02-20">
          <mxGeometry relative="1" as="geometry">
            <mxPoint x="455" y="670" as="sourcePoint" />
          </mxGeometry>
        </mxCell>
        <mxCell id="xIOSsBca0JQ4WLuGrc02-59" value="Implements" style="edgeLabel;html=1;align=center;verticalAlign=middle;resizable=0;points=[];" vertex="1" connectable="0" parent="xIOSsBca0JQ4WLuGrc02-43">
          <mxGeometry x="-0.1608" relative="1" as="geometry">
            <mxPoint as="offset" />
          </mxGeometry>
        </mxCell>
        <mxCell id="xIOSsBca0JQ4WLuGrc02-53" value="" style="rounded=0;whiteSpace=wrap;html=1;" vertex="1" parent="1">
          <mxGeometry x="225" y="585" width="120" height="60" as="geometry" />
        </mxCell>
        <mxCell id="xIOSsBca0JQ4WLuGrc02-55" value="&amp;lt;&amp;lt;Interface&amp;gt;&amp;gt;&lt;br&gt;SmartPhone" style="text;html=1;strokeColor=none;fillColor=none;align=center;verticalAlign=middle;whiteSpace=wrap;rounded=0;" vertex="1" parent="1">
          <mxGeometry x="255" y="600" width="60" height="30" as="geometry" />
        </mxCell>
        <mxCell id="xIOSsBca0JQ4WLuGrc02-56" value="" style="rounded=0;whiteSpace=wrap;html=1;" vertex="1" parent="1">
          <mxGeometry x="410" y="645" width="120" height="60" as="geometry" />
        </mxCell>
        <mxCell id="xIOSsBca0JQ4WLuGrc02-57" value="&amp;lt;&amp;lt;Interface&amp;gt;&amp;gt;&lt;br&gt;MobilePhone&lt;br&gt;" style="text;html=1;strokeColor=none;fillColor=none;align=center;verticalAlign=middle;whiteSpace=wrap;rounded=0;" vertex="1" parent="1">
          <mxGeometry x="440" y="660" width="60" height="30" as="geometry" />
        </mxCell>
        <mxCell id="xIOSsBca0JQ4WLuGrc02-58" style="edgeStyle=orthogonalEdgeStyle;rounded=0;orthogonalLoop=1;jettySize=auto;html=1;entryX=0;entryY=0.601;entryDx=0;entryDy=0;entryPerimeter=0;" edge="1" parent="1" source="xIOSsBca0JQ4WLuGrc02-53" target="xIOSsBca0JQ4WLuGrc02-56">
          <mxGeometry relative="1" as="geometry" />
        </mxCell>
        <mxCell id="xIOSsBca0JQ4WLuGrc02-67" style="edgeStyle=orthogonalEdgeStyle;rounded=0;orthogonalLoop=1;jettySize=auto;html=1;entryX=0;entryY=0.5;entryDx=0;entryDy=0;" edge="1" parent="1" source="xIOSsBca0JQ4WLuGrc02-62" target="xIOSsBca0JQ4WLuGrc02-66">
          <mxGeometry relative="1" as="geometry" />
        </mxCell>
        <mxCell id="xIOSsBca0JQ4WLuGrc02-68" value="Extends" style="edgeLabel;html=1;align=center;verticalAlign=middle;resizable=0;points=[];" vertex="1" connectable="0" parent="xIOSsBca0JQ4WLuGrc02-67">
          <mxGeometry x="-0.2243" relative="1" as="geometry">
            <mxPoint as="offset" />
          </mxGeometry>
        </mxCell>
        <mxCell id="xIOSsBca0JQ4WLuGrc02-62" value="" style="whiteSpace=wrap;html=1;aspect=fixed;" vertex="1" parent="1">
          <mxGeometry x="700" y="320" width="80" height="80" as="geometry" />
        </mxCell>
        <mxCell id="xIOSsBca0JQ4WLuGrc02-63" value="&amp;lt;&amp;lt;interface&amp;gt;&amp;gt;&lt;br&gt;Component" style="text;html=1;strokeColor=none;fillColor=none;align=center;verticalAlign=middle;whiteSpace=wrap;rounded=0;" vertex="1" parent="1">
          <mxGeometry x="710" y="345" width="60" height="30" as="geometry" />
        </mxCell>
        <mxCell id="xIOSsBca0JQ4WLuGrc02-64" style="edgeStyle=orthogonalEdgeStyle;rounded=0;orthogonalLoop=1;jettySize=auto;html=1;entryX=0;entryY=0.5;entryDx=0;entryDy=0;" edge="1" parent="1" source="xIOSsBca0JQ4WLuGrc02-19" target="xIOSsBca0JQ4WLuGrc02-62">
          <mxGeometry relative="1" as="geometry" />
        </mxCell>
        <mxCell id="xIOSsBca0JQ4WLuGrc02-65" value="Extends" style="edgeLabel;html=1;align=center;verticalAlign=middle;resizable=0;points=[];" vertex="1" connectable="0" parent="xIOSsBca0JQ4WLuGrc02-64">
          <mxGeometry x="-0.0617" relative="1" as="geometry">
            <mxPoint as="offset" />
          </mxGeometry>
        </mxCell>
        <mxCell id="xIOSsBca0JQ4WLuGrc02-66" value="" style="whiteSpace=wrap;html=1;aspect=fixed;" vertex="1" parent="1">
          <mxGeometry x="950" y="320" width="80" height="80" as="geometry" />
        </mxCell>
        <mxCell id="xIOSsBca0JQ4WLuGrc02-69" value="&amp;lt;&amp;lt;interface&amp;gt;&amp;gt;&lt;br&gt;AppleDevice" style="text;html=1;strokeColor=none;fillColor=none;align=center;verticalAlign=middle;whiteSpace=wrap;rounded=0;" vertex="1" parent="1">
          <mxGeometry x="960" y="345" width="60" height="30" as="geometry" />
        </mxCell>
        <mxCell id="xIOSsBca0JQ4WLuGrc02-70" value="&amp;lt;&amp;lt;Interface&amp;gt;&amp;gt;&lt;br&gt;TelePhone" style="swimlane;fontStyle=0;childLayout=stackLayout;horizontal=1;startSize=30;horizontalStack=0;resizeParent=1;resizeParentMax=0;resizeLast=0;collapsible=1;marginBottom=0;whiteSpace=wrap;html=1;" vertex="1" parent="1">
          <mxGeometry x="650" y="645" width="140" height="120" as="geometry" />
        </mxCell>
        <mxCell id="xIOSsBca0JQ4WLuGrc02-71" value="+ ligar" style="text;strokeColor=none;fillColor=none;align=left;verticalAlign=middle;spacingLeft=4;spacingRight=4;overflow=hidden;points=[[0,0.5],[1,0.5]];portConstraint=eastwest;rotatable=0;whiteSpace=wrap;html=1;" vertex="1" parent="xIOSsBca0JQ4WLuGrc02-70">
          <mxGeometry y="30" width="140" height="30" as="geometry" />
        </mxCell>
        <mxCell id="xIOSsBca0JQ4WLuGrc02-72" value="+ atender" style="text;strokeColor=none;fillColor=none;align=left;verticalAlign=middle;spacingLeft=4;spacingRight=4;overflow=hidden;points=[[0,0.5],[1,0.5]];portConstraint=eastwest;rotatable=0;whiteSpace=wrap;html=1;" vertex="1" parent="xIOSsBca0JQ4WLuGrc02-70">
          <mxGeometry y="60" width="140" height="30" as="geometry" />
        </mxCell>
        <mxCell id="xIOSsBca0JQ4WLuGrc02-73" value="+&amp;nbsp;iniciarCorrerioVoz" style="text;strokeColor=none;fillColor=none;align=left;verticalAlign=middle;spacingLeft=4;spacingRight=4;overflow=hidden;points=[[0,0.5],[1,0.5]];portConstraint=eastwest;rotatable=0;whiteSpace=wrap;html=1;" vertex="1" parent="xIOSsBca0JQ4WLuGrc02-70">
          <mxGeometry y="90" width="140" height="30" as="geometry" />
        </mxCell>
        <mxCell id="xIOSsBca0JQ4WLuGrc02-75" style="edgeStyle=orthogonalEdgeStyle;rounded=0;orthogonalLoop=1;jettySize=auto;html=1;entryX=0.296;entryY=-0.001;entryDx=0;entryDy=0;entryPerimeter=0;" edge="1" parent="1" source="xIOSsBca0JQ4WLuGrc02-56" target="xIOSsBca0JQ4WLuGrc02-70">
          <mxGeometry relative="1" as="geometry" />
        </mxCell>
        <mxCell id="xIOSsBca0JQ4WLuGrc02-76" value="Implements" style="edgeLabel;html=1;align=center;verticalAlign=middle;resizable=0;points=[];" vertex="1" connectable="0" parent="xIOSsBca0JQ4WLuGrc02-75">
          <mxGeometry x="0.1668" y="2" relative="1" as="geometry">
            <mxPoint as="offset" />
          </mxGeometry>
        </mxCell>
        <mxCell id="xIOSsBca0JQ4WLuGrc02-77" style="edgeStyle=orthogonalEdgeStyle;rounded=0;orthogonalLoop=1;jettySize=auto;html=1;exitX=0.75;exitY=0;exitDx=0;exitDy=0;entryX=0.676;entryY=1.003;entryDx=0;entryDy=0;entryPerimeter=0;" edge="1" parent="1" source="xIOSsBca0JQ4WLuGrc02-70" target="xIOSsBca0JQ4WLuGrc02-62">
          <mxGeometry relative="1" as="geometry" />
        </mxCell>
        <mxCell id="xIOSsBca0JQ4WLuGrc02-78" value="Extends" style="edgeLabel;html=1;align=center;verticalAlign=middle;resizable=0;points=[];" vertex="1" connectable="0" parent="xIOSsBca0JQ4WLuGrc02-77">
          <mxGeometry x="0.0508" y="-2" relative="1" as="geometry">
            <mxPoint as="offset" />
          </mxGeometry>
        </mxCell>
        <mxCell id="xIOSsBca0JQ4WLuGrc02-83" style="edgeStyle=orthogonalEdgeStyle;rounded=0;orthogonalLoop=1;jettySize=auto;html=1;entryX=1;entryY=0.75;entryDx=0;entryDy=0;" edge="1" parent="1" source="xIOSsBca0JQ4WLuGrc02-79" target="xIOSsBca0JQ4WLuGrc02-62">
          <mxGeometry relative="1" as="geometry" />
        </mxCell>
        <mxCell id="xIOSsBca0JQ4WLuGrc02-84" value="Extends" style="edgeLabel;html=1;align=center;verticalAlign=middle;resizable=0;points=[];" vertex="1" connectable="0" parent="xIOSsBca0JQ4WLuGrc02-83">
          <mxGeometry x="-0.0264" y="-1" relative="1" as="geometry">
            <mxPoint as="offset" />
          </mxGeometry>
        </mxCell>
        <mxCell id="xIOSsBca0JQ4WLuGrc02-79" value="&amp;lt;&amp;lt;Interface&amp;gt;&amp;gt;&lt;br&gt;Navegador page" style="swimlane;fontStyle=0;childLayout=stackLayout;horizontal=1;startSize=30;horizontalStack=0;resizeParent=1;resizeParentMax=0;resizeLast=0;collapsible=1;marginBottom=0;whiteSpace=wrap;html=1;" vertex="1" parent="1">
          <mxGeometry x="900" y="645" width="140" height="120" as="geometry" />
        </mxCell>
        <mxCell id="xIOSsBca0JQ4WLuGrc02-80" value="+&amp;nbsp;adicionarNovaAba" style="text;strokeColor=none;fillColor=none;align=left;verticalAlign=middle;spacingLeft=4;spacingRight=4;overflow=hidden;points=[[0,0.5],[1,0.5]];portConstraint=eastwest;rotatable=0;whiteSpace=wrap;html=1;" vertex="1" parent="xIOSsBca0JQ4WLuGrc02-79">
          <mxGeometry y="30" width="140" height="30" as="geometry" />
        </mxCell>
        <mxCell id="xIOSsBca0JQ4WLuGrc02-81" value="+&amp;nbsp;atualizarPagina" style="text;strokeColor=none;fillColor=none;align=left;verticalAlign=middle;spacingLeft=4;spacingRight=4;overflow=hidden;points=[[0,0.5],[1,0.5]];portConstraint=eastwest;rotatable=0;whiteSpace=wrap;html=1;" vertex="1" parent="xIOSsBca0JQ4WLuGrc02-79">
          <mxGeometry y="60" width="140" height="30" as="geometry" />
        </mxCell>
        <mxCell id="xIOSsBca0JQ4WLuGrc02-82" value="- exibirPagina" style="text;strokeColor=none;fillColor=none;align=left;verticalAlign=middle;spacingLeft=4;spacingRight=4;overflow=hidden;points=[[0,0.5],[1,0.5]];portConstraint=eastwest;rotatable=0;whiteSpace=wrap;html=1;" vertex="1" parent="xIOSsBca0JQ4WLuGrc02-79">
          <mxGeometry y="90" width="140" height="30" as="geometry" />
        </mxCell>
        <mxCell id="xIOSsBca0JQ4WLuGrc02-87" style="edgeStyle=orthogonalEdgeStyle;rounded=0;orthogonalLoop=1;jettySize=auto;html=1;entryX=1;entryY=0.5;entryDx=0;entryDy=0;" edge="1" parent="1" source="xIOSsBca0JQ4WLuGrc02-86" target="xIOSsBca0JQ4WLuGrc02-81">
          <mxGeometry relative="1" as="geometry" />
        </mxCell>
        <mxCell id="xIOSsBca0JQ4WLuGrc02-88" value="Implements" style="edgeLabel;html=1;align=center;verticalAlign=middle;resizable=0;points=[];" vertex="1" connectable="0" parent="xIOSsBca0JQ4WLuGrc02-87">
          <mxGeometry x="-0.1053" y="2" relative="1" as="geometry">
            <mxPoint as="offset" />
          </mxGeometry>
        </mxCell>
        <mxCell id="xIOSsBca0JQ4WLuGrc02-86" value="macintosh" style="swimlane;whiteSpace=wrap;html=1;" vertex="1" parent="1">
          <mxGeometry x="1150" y="645" width="160" height="145" as="geometry" />
        </mxCell>
      </root>
    </mxGraphModel>
  </diagram>
</mxfile>
